<?xml version="1.0" encoding="UTF-8"?>
<svg version="1.1" xmlns="http://www.w3.org/2000/svg" width="200" height="200">
<path d="M0 0 C66 0 132 0 200 0 C200 66 200 132 200 200 C134 200 68 200 0 200 C0 134 0 68 0 0 Z " fill="#FDFDFD" transform="translate(0,0)"/>
<path d="M0 0 C0.86716141 -0.00511093 1.73432281 -0.01022186 2.62776184 -0.01548767 C5.49434311 -0.02938682 8.36068396 -0.02842633 11.22729492 -0.02612305 C13.22263173 -0.03001046 15.21796771 -0.03434522 17.21330261 -0.03910828 C21.39711182 -0.04657167 25.58083666 -0.04627881 29.76464844 -0.04101562 C35.11788835 -0.0352279 40.47078151 -0.05213464 45.82396412 -0.0753603 C49.946162 -0.0901174 54.06827682 -0.09096652 58.19049644 -0.08785057 C60.16359836 -0.08836302 62.13670501 -0.09358639 64.10978127 -0.10366249 C66.87419531 -0.11604463 69.63793985 -0.109224 72.40234375 -0.09765625 C73.21245911 -0.10529999 74.02257446 -0.11294373 74.85723877 -0.12081909 C80.08830247 -0.07261051 83.75655686 0.80278051 88.39526367 3.2746582 C89.83276367 5.4621582 89.83276367 5.4621582 90.39526367 7.2746582 C88.71110352 8.14477539 88.71110352 8.14477539 86.99291992 9.0324707 C72.93133491 14.98432143 72.93133491 14.98432143 63.39526367 25.2746582 C64.38526367 25.2746582 65.37526367 25.2746582 66.39526367 25.2746582 C65.73526367 27.9146582 65.07526367 30.5546582 64.39526367 33.2746582 C65.13776367 33.2746582 65.88026367 33.2746582 66.64526367 33.2746582 C68.89526367 33.2746582 71.14526367 33.2746582 73.39526367 33.2746582 C76.28153393 31.68377746 76.28153393 31.68377746 79.33276367 29.5871582 C85.56032849 25.58187422 92.10611959 21.894468 99.39526367 20.2746582 C102.7399036 21.51147168 104.545845 23.31749989 106.77807617 26.0480957 C107.38780273 26.7905957 107.9975293 27.5330957 108.62573242 28.2980957 C109.25092773 29.07411133 109.87612305 29.85012695 110.52026367 30.6496582 C111.15319336 31.41793945 111.78612305 32.1862207 112.43823242 32.9777832 C117.13335622 38.73952749 120.12944753 42.86565302 119.96166992 50.50512695 C118.82665489 56.05495905 114.91874325 59.9991082 111.39526367 64.2746582 C110.01096454 66.1009802 108.63622604 67.93458132 107.27026367 69.7746582 C106.52389648 70.76723633 105.7775293 71.75981445 105.00854492 72.7824707 C101.80400219 77.05603576 98.62944637 81.35167498 95.45776367 85.6496582 C94.8597998 86.45894775 94.26183594 87.2682373 93.64575195 88.10205078 C90.83981299 91.91065647 88.05791604 95.73150825 85.34448242 99.60668945 C84.6550354 100.58919678 84.6550354 100.58919678 83.95166016 101.59155273 C83.10004481 102.81096533 82.25420025 104.03443478 81.41503906 105.26245117 C80.4569683 106.63502995 79.43254294 107.96091401 78.39526367 109.2746582 C77.73526367 109.2746582 77.07526367 109.2746582 76.39526367 109.2746582 C74.67481243 106.68068867 73.12501881 104.03531192 71.58081055 101.33520508 C68.71903192 96.47402641 65.89723695 92.1086493 60.39526367 90.2746582 C60.39526367 89.6146582 60.39526367 88.9546582 60.39526367 88.2746582 C59.79713867 88.4396582 59.19901367 88.6046582 58.58276367 88.7746582 C56.39526367 89.2746582 56.39526367 89.2746582 53.39526367 89.2746582 C51.91026367 89.7696582 51.91026367 89.7696582 50.39526367 90.2746582 C51.35775059 97.01206663 53.11042112 100.568257 57.43823242 105.7434082 C66.58595758 117.57519643 66.58595758 117.57519643 66.25854492 123.92700195 C65.32944111 126.45365984 64.3080074 128.02610061 62.58276367 130.0871582 C60.11529639 133.1063573 57.73018546 136.15627983 55.43823242 139.30981445 C54.6557312 140.38042114 54.6557312 140.38042114 53.85742188 141.47265625 C52.81451057 142.90315004 51.77768274 144.33810265 50.74755859 145.77783203 C48.00830365 149.50417342 45.7388886 152.35604555 41.39526367 154.2746582 C36.55827446 154.81210145 32.9377456 154.93964415 28.91870117 151.8137207 C26.24914698 149.11678647 24.16301507 146.04191551 21.99682617 142.93481445 C18.6114857 138.1039697 14.98444091 133.45463965 11.39526367 128.7746582 C6.60908135 122.51735802 1.86389674 116.24681829 -2.72192383 109.84106445 C-4.2190731 107.80034439 -5.74308053 105.7966309 -7.30004883 103.80200195 C-7.76491699 103.20581055 -8.22978516 102.60961914 -8.70874023 101.99536133 C-9.62069607 100.83045657 -10.53686745 99.66883636 -11.45776367 98.51098633 C-14.60473633 94.49336362 -14.60473633 94.49336362 -14.60473633 92.2746582 C-8.00473633 90.2946582 -1.40473633 88.3146582 5.39526367 86.2746582 C5.39526367 85.2846582 5.39526367 84.2946582 5.39526367 83.2746582 C2.42526367 82.9446582 -0.54473633 82.6146582 -3.60473633 82.2746582 C-3.93473633 81.2846582 -4.26473633 80.2946582 -4.60473633 79.2746582 C-3.94473633 79.2746582 -3.28473633 79.2746582 -2.60473633 79.2746582 C-2.60473633 78.6146582 -2.60473633 77.9546582 -2.60473633 77.2746582 C-3.71268555 77.38293945 -3.71268555 77.38293945 -4.84301758 77.4934082 C-6.97374174 77.68834104 -9.10695639 77.85714173 -11.24145508 78.00512695 C-14.53790101 78.22019936 -14.53790101 78.22019936 -17.49926758 78.76293945 C-20.57039058 79.12760785 -22.62889708 79.16042854 -25.60473633 78.2746582 C-29.63558033 74.75801278 -32.59582041 70.64853728 -35.60473633 66.2746582 C-36.30083008 65.31172852 -36.99692383 64.34879883 -37.71411133 63.35668945 C-42.69964417 56.38312389 -45.73176519 52.070981 -44.60473633 43.2746582 C-42.85473633 39.9621582 -42.85473633 39.9621582 -40.60473633 37.2746582 C-39.92411133 36.3465332 -39.24348633 35.4184082 -38.54223633 34.4621582 C-36.60473633 32.2746582 -36.60473633 32.2746582 -33.60473633 31.2746582 C-34.59473633 30.6146582 -35.58473633 29.9546582 -36.60473633 29.2746582 C-34.95473633 29.2746582 -33.30473633 29.2746582 -31.60473633 29.2746582 C-31.60473633 28.6146582 -31.60473633 27.9546582 -31.60473633 27.2746582 C-30.63987305 27.41774414 -30.63987305 27.41774414 -29.65551758 27.5637207 C-24.40664473 28.20766231 -19.8167452 28.29391978 -14.60473633 27.3371582 C-8.95108361 26.33507365 -3.51578654 26.07772256 2.20776367 26.0871582 C2.99602539 26.08659424 3.78428711 26.08603027 4.59643555 26.08544922 C8.37883159 26.12010259 12.01884238 26.32242227 15.76245117 26.8762207 C20.03423163 27.34473856 21.74987183 26.39407206 25.39526367 24.2746582 C26.38526367 24.2746582 27.37526367 24.2746582 28.39526367 24.2746582 C27.67939393 21.10381461 27.67939393 21.10381461 24.95776367 19.6496582 C21.05735042 18.14423554 17.70901019 17.74916935 13.56713867 17.4855957 C11.39526367 17.2746582 11.39526367 17.2746582 9.39526367 16.2746582 C7.61703559 16.18992861 5.83563984 16.16744905 4.05541992 16.17700195 C2.46117188 16.18183594 2.46117188 16.18183594 0.8347168 16.18676758 C-0.27967773 16.19514648 -1.39407227 16.20352539 -2.54223633 16.2121582 C-3.65276367 16.21666992 -4.76329102 16.22118164 -5.9074707 16.22583008 C-7.96924902 16.23457172 -10.03102034 16.245358 -12.09277344 16.25878906 C-16.5080014 16.28668194 -18.16837277 16.11854528 -21.60473633 13.2746582 C-20.19703997 11.47593508 -18.7782263 9.68590852 -17.35473633 7.8996582 C-16.56583008 6.90192383 -15.77692383 5.90418945 -14.96411133 4.8762207 C-10.47676793 -0.07174404 -6.44977953 -0.01957734 0 0 Z " fill="#F8FCF9" transform="translate(62.604736328125,22.725341796875)"/>
<path d="M0 0 C2.2962247 1.445628 3.69822511 2.95333338 5.4140625 5.05224609 C6.02378906 5.79474609 6.63351563 6.53724609 7.26171875 7.30224609 C8.19951172 8.46626953 8.19951172 8.46626953 9.15625 9.65380859 C9.78917969 10.42208984 10.42210937 11.19037109 11.07421875 11.98193359 C15.76934255 17.74367788 18.76543386 21.86980341 18.59765625 29.50927734 C17.46264122 35.05910944 13.55472958 39.00325859 10.03125 43.27880859 C8.64695087 45.10513059 7.27221236 46.93873171 5.90625 48.77880859 C5.15988281 49.77138672 4.41351563 50.76396484 3.64453125 51.78662109 C0.43998852 56.06018615 -2.7345673 60.35582537 -5.90625 64.65380859 C-6.50421387 65.46309814 -7.10217773 66.2723877 -7.71826172 67.10620117 C-10.52420068 70.91480686 -13.30609764 74.73565864 -16.01953125 78.61083984 C-16.4791626 79.26584473 -16.93879395 79.92084961 -17.41235352 80.59570312 C-18.26396886 81.81511572 -19.10981342 83.03858517 -19.94897461 84.26660156 C-20.90704537 85.63918034 -21.93147074 86.9650644 -22.96875 88.27880859 C-23.62875 88.27880859 -24.28875 88.27880859 -24.96875 88.27880859 C-26.26866435 86.34537277 -27.48276315 84.3539884 -28.65625 82.34130859 C-32.05762878 76.64941043 -35.63912501 71.32200207 -39.96875 66.27880859 C-40.53722656 65.61494141 -41.10570313 64.95107422 -41.69140625 64.26708984 C-47.85715819 57.6038887 -55.8583773 52.33399494 -63.96875 48.27880859 C-62.56895819 45.07052985 -60.94098067 43.06564735 -58.37109375 40.70458984 C-57.65646973 40.04144775 -56.9418457 39.37830566 -56.20556641 38.69506836 C-55.44679199 38.00082764 -54.68801758 37.30658691 -53.90625 36.59130859 C-52.34918162 35.14976464 -50.79318133 33.70706609 -49.23828125 32.26318359 C-48.49400879 31.57289062 -47.74973633 30.88259766 -46.98291016 30.17138672 C-44.62315903 27.95407875 -42.34794259 25.66555835 -40.09375 23.34130859 C-32.73214697 15.90878454 -11.77292845 -4.31265261 0 0 Z " fill="#0168BF" transform="translate(163.96875,43.72119140625)"/>
<path d="M0 0 C13.2261551 6.75478636 22.30378408 18.3723236 29.625 30.9375 C30.02799316 31.61562744 30.43098633 32.29375488 30.84619141 32.99243164 C32.44786881 35.8610067 33.51752135 37.97762062 33.41796875 41.30078125 C32.43224206 43.72944402 31.36923505 45.36591993 29.6875 47.375 C27.22003272 50.3941991 24.83492179 53.44412163 22.54296875 56.59765625 C22.02130127 57.31139404 21.49963379 58.02513184 20.9621582 58.76049805 C19.9192469 60.19099183 18.88241907 61.62594444 17.85229492 63.06567383 C15.11303998 66.79201521 12.84362493 69.64388735 8.5 71.5625 C3.66301079 72.09994325 0.04248193 72.22748594 -3.9765625 69.1015625 C-6.64611669 66.40462826 -8.7322486 63.32975731 -10.8984375 60.22265625 C-14.28377797 55.3918115 -17.91082276 50.74248144 -21.5 46.0625 C-26.28618233 39.80519982 -31.03136693 33.53466009 -35.6171875 27.12890625 C-37.11433677 25.08818618 -38.6383442 23.0844727 -40.1953125 21.08984375 C-40.89261475 20.19555664 -40.89261475 20.19555664 -41.60400391 19.28320312 C-42.51595974 18.11829836 -43.43213112 16.95667816 -44.35302734 15.79882812 C-47.5 11.78120542 -47.5 11.78120542 -47.5 9.5625 C-46.95698242 9.40692627 -46.41396484 9.25135254 -45.85449219 9.09106445 C-43.31748456 8.35964827 -40.78331003 7.61912465 -38.25 6.875 C-37.33355713 6.60606934 -36.41711426 6.33713867 -35.47290039 6.06005859 C-30.45643624 4.55542931 -25.70097056 2.88942215 -20.9375 0.6875 C-13.89513108 -2.3774183 -7.2281996 -2.77316361 0 0 Z " fill="#0268BE" transform="translate(95.5,105.4375)"/>
<path d="M0 0 C2.5762885 2.50188306 4.84759606 5.12775236 7 8 C5.60281757 11.24827183 4.01426895 13.11379455 1.3125 15.375 C0.59320313 15.98085937 -0.12609375 16.58671875 -0.8671875 17.2109375 C-1.57101563 17.80132812 -2.27484375 18.39171875 -3 19 C-3.55945313 19.50789063 -4.11890625 20.01578125 -4.6953125 20.5390625 C-16.16863069 30.90384753 -31.32396119 38.39376829 -46.5625 41.125 C-47.92568359 41.37636719 -47.92568359 41.37636719 -49.31640625 41.6328125 C-50.20199219 41.75398438 -51.08757813 41.87515625 -52 42 C-52.83660156 42.12890625 -53.67320313 42.2578125 -54.53515625 42.390625 C-58.34054476 41.78755234 -59.5353135 39.59258958 -61.875 36.625 C-62.30554687 36.08496338 -62.73609375 35.54492676 -63.1796875 34.98852539 C-76.49538666 18.10364423 -76.49538666 18.10364423 -76.3203125 9.5 C-75.85376109 5.85862311 -74.3298885 3.78292237 -72 1 C-71.53335938 0.16726562 -71.06671875 -0.66546875 -70.5859375 -1.5234375 C-66.50563782 -5.43115653 -61.83815225 -5.56803936 -56.375 -6.3125 C-54.69398193 -6.55722046 -54.69398193 -6.55722046 -52.97900391 -6.80688477 C-35.84875163 -9.14616675 -14.86645573 -10.57289451 0 0 Z " fill="#0268BE" transform="translate(94,59)"/>
<path d="M0 0 C0.86716141 -0.00511093 1.73432281 -0.01022186 2.62776184 -0.01548767 C5.49434311 -0.02938682 8.36068396 -0.02842633 11.22729492 -0.02612305 C13.22263173 -0.03001046 15.21796771 -0.03434522 17.21330261 -0.03910828 C21.39711182 -0.04657167 25.58083666 -0.04627881 29.76464844 -0.04101562 C35.11788835 -0.0352279 40.47078151 -0.05213464 45.82396412 -0.0753603 C49.946162 -0.0901174 54.06827682 -0.09096652 58.19049644 -0.08785057 C60.16359836 -0.08836302 62.13670501 -0.09358639 64.10978127 -0.10366249 C66.87419531 -0.11604463 69.63793985 -0.109224 72.40234375 -0.09765625 C73.21245911 -0.10529999 74.02257446 -0.11294373 74.85723877 -0.12081909 C80.08830247 -0.07261051 83.75655686 0.80278051 88.39526367 3.2746582 C89.83276367 5.4621582 89.83276367 5.4621582 90.39526367 7.2746582 C89.29569336 7.8315332 88.19612305 8.3884082 87.06323242 8.9621582 C74.9156734 15.19633561 64.45251197 22.05976249 54.48901367 31.48950195 C52.39526367 33.2746582 52.39526367 33.2746582 49.39526367 34.2746582 C48.94538086 33.69458008 48.49549805 33.11450195 48.03198242 32.5168457 C42.88006492 26.26020842 37.70218668 22.68602286 30.39526367 19.2746582 C29.21963867 18.6971582 28.04401367 18.1196582 26.83276367 17.5246582 C16.4460451 13.74766963 6.16341256 14.03302449 -4.72973633 14.1496582 C-6.37035586 14.15970943 -8.01098135 14.16883149 -9.65161133 14.17700195 C-13.63613598 14.19884271 -17.62036891 14.23325391 -21.60473633 14.2746582 C-15.25027028 4.70409389 -12.04157061 -0.03655039 0 0 Z " fill="#0367BE" transform="translate(62.604736328125,22.725341796875)"/>
<path d="M0 0 C0.86716141 -0.00511093 1.73432281 -0.01022186 2.62776184 -0.01548767 C5.49434311 -0.02938682 8.36068396 -0.02842633 11.22729492 -0.02612305 C13.22263173 -0.03001046 15.21796771 -0.03434522 17.21330261 -0.03910828 C21.39711182 -0.04657167 25.58083666 -0.04627881 29.76464844 -0.04101562 C35.11788835 -0.0352279 40.47078151 -0.05213464 45.82396412 -0.0753603 C49.946162 -0.0901174 54.06827682 -0.09096652 58.19049644 -0.08785057 C60.16359836 -0.08836302 62.13670501 -0.09358639 64.10978127 -0.10366249 C66.87419531 -0.11604463 69.63793985 -0.109224 72.40234375 -0.09765625 C73.21245911 -0.10529999 74.02257446 -0.11294373 74.85723877 -0.12081909 C80.08830247 -0.07261051 83.75655686 0.80278051 88.39526367 3.2746582 C89.83276367 5.4621582 89.83276367 5.4621582 90.39526367 7.2746582 C89.29569336 7.8315332 88.19612305 8.3884082 87.06323242 8.9621582 C74.9156734 15.19633561 64.45251197 22.05976249 54.48901367 31.48950195 C52.39526367 33.2746582 52.39526367 33.2746582 49.39526367 34.2746582 C48.94538086 33.69458008 48.49549805 33.11450195 48.03198242 32.5168457 C42.88006492 26.26020842 37.70218668 22.68602286 30.39526367 19.2746582 C29.21963867 18.6971582 28.04401367 18.1196582 26.83276367 17.5246582 C16.4460451 13.74766963 6.16341256 14.03302449 -4.72973633 14.1496582 C-6.37035586 14.15970943 -8.01098135 14.16883149 -9.65161133 14.17700195 C-13.63613598 14.19884271 -17.62036891 14.23325391 -21.60473633 14.2746582 C-15.25027028 4.70409389 -12.04157061 -0.03655039 0 0 Z M-14.60473633 7.2746582 C-15.40728462 9.33449982 -15.40728462 9.33449982 -15.60473633 11.2746582 C-14.66791016 11.32477051 -13.73108398 11.37488281 -12.76586914 11.42651367 C-9.23184451 11.61877926 -5.69826041 11.81709561 -2.16479492 12.01928711 C-0.64637163 12.10498126 0.87218309 12.18838298 2.39086914 12.26928711 C27.54463458 13.6141419 27.54463458 13.6141419 31.06835938 16.77587891 C31.50623779 17.27047607 31.94411621 17.76507324 32.39526367 18.2746582 C34.74942974 19.41847896 34.74942974 19.41847896 37.33276367 20.3371582 C43.81835964 22.77292502 43.81835964 22.77292502 46.39526367 24.2746582 C47.02026367 26.2746582 47.02026367 26.2746582 47.39526367 28.2746582 C48.38526367 29.2646582 48.38526367 29.2646582 49.39526367 30.2746582 C51.50347164 29.9561405 51.50347164 29.9561405 53.39526367 29.2746582 C53.39526367 28.2846582 53.39526367 27.2946582 53.39526367 26.2746582 C55.04526367 25.9446582 56.69526367 25.6146582 58.39526367 25.2746582 C58.72526367 23.6246582 59.05526367 21.9746582 59.39526367 20.2746582 C61.37526367 19.9446582 63.35526367 19.6146582 65.39526367 19.2746582 C65.39526367 18.6146582 65.39526367 17.9546582 65.39526367 17.2746582 C66.44713867 17.1509082 66.44713867 17.1509082 67.52026367 17.0246582 C71.05225346 16.10326956 73.41454725 14.34820006 76.39526367 12.2746582 C77.38526367 11.9446582 78.37526367 11.6146582 79.39526367 11.2746582 C79.39526367 10.6146582 79.39526367 9.9546582 79.39526367 9.2746582 C80.84932617 8.8724707 80.84932617 8.8724707 82.33276367 8.4621582 C83.34338867 8.0702832 84.35401367 7.6784082 85.39526367 7.2746582 C85.72526367 6.2846582 86.05526367 5.2946582 86.39526367 4.2746582 C82.58587287 3.00486127 78.99777663 3.11088006 75.02758789 3.09765625 C73.74651405 3.08779945 73.74651405 3.08779945 72.43955994 3.07774353 C69.60968944 3.05801511 66.77987209 3.04634702 63.94995117 3.03637695 C62.49808096 3.03026366 62.49808096 3.03026366 61.01688004 3.02402687 C55.89073144 3.00316499 50.7646096 2.98886552 45.63842773 2.97949219 C40.35592317 2.96844622 35.07384199 2.93406751 29.79148674 2.89432049 C25.71983077 2.86810885 21.64827481 2.85979616 17.5765419 2.85621071 C15.63019079 2.85135408 13.68384388 2.83976657 11.73757553 2.82117271 C9.00448375 2.7966914 6.27247566 2.79776293 3.53930664 2.8046875 C2.74416153 2.79187744 1.94901642 2.77906738 1.129776 2.76586914 C-4.53929741 2.8178776 -9.91210169 3.91546215 -14.60473633 7.2746582 Z " fill="#2369A0" transform="translate(62.604736328125,22.725341796875)"/>
<path d="M0 0 C0 3.57575896 -1.08840607 5.05295935 -3 8 C-1.68 8.33 -0.36 8.66 1 9 C0.67 10.32 0.34 11.64 0 13 C-0.99 12.67 -1.98 12.34 -3 12 C-3.33 11.34 -3.66 10.68 -4 10 C-4.65226562 10.61488281 -5.30453125 11.22976562 -5.9765625 11.86328125 C-7.28753906 13.07564453 -7.28753906 13.07564453 -8.625 14.3125 C-9.48351562 15.11300781 -10.34203125 15.91351563 -11.2265625 16.73828125 C-14.02350373 19.01916713 -16.77982316 20.40800246 -20 22 C-21.88131569 24.54788853 -21.88131569 24.54788853 -23 27 C-22.43410156 27.18175781 -21.86820312 27.36351563 -21.28515625 27.55078125 C-20.55167969 27.80214844 -19.81820312 28.05351563 -19.0625 28.3125 C-18.33160156 28.55613281 -17.60070312 28.79976562 -16.84765625 29.05078125 C-15 30 -15 30 -14 33 C-13.175 33.33 -12.35 33.66 -11.5 34 C-10.675 34.33 -9.85 34.66 -9 35 C-8.67 35.99 -8.34 36.98 -8 38 C-6.88625 38.0928125 -6.88625 38.0928125 -5.75 38.1875 C-2.09267905 39.2680721 -1.07473911 40.85211997 1 44 C1.33 44.845625 1.66 45.69125 2 46.5625 C3.17361694 49.4231913 4.79801757 50.86904926 7 53 C7.33 53.99 7.66 54.98 8 56 C8.99 56.495 8.99 56.495 10 57 C10 57.99 10 58.98 10 60 C11.32 60.33 12.64 60.66 14 61 C14.33 60.01 14.66 59.02 15 58 C16.32 58 17.64 58 19 58 C19.433125 56.88625 19.433125 56.88625 19.875 55.75 C21 53 21 53 22 51.0625 C23.26599985 48.4513753 24.12115029 45.76209909 25 43 C25.99 43.33 26.98 43.66 28 44 C28.99 43.67 29.98 43.34 31 43 C29.55859406 46.10490561 27.82484207 48.73671961 25.77734375 51.4765625 C24.84631836 52.72953125 24.84631836 52.72953125 23.89648438 54.0078125 C23.25001953 54.87148437 22.60355469 55.73515625 21.9375 56.625 C20.6536003 58.34534926 19.3709831 60.06665663 18.08984375 61.7890625 C17.52128662 62.54912598 16.95272949 63.30918945 16.36694336 64.09228516 C14.9578616 65.95308377 14.9578616 65.95308377 14 68 C13.34 68 12.68 68 12 68 C10.70008565 66.06656418 9.48598685 64.07517981 8.3125 62.0625 C4.91112122 56.37060183 1.32962499 51.04319347 -3 46 C-3.56847656 45.33613281 -4.13695313 44.67226562 -4.72265625 43.98828125 C-10.88840819 37.3250801 -18.8896273 32.05518635 -27 28 C-25.5950955 24.77484337 -23.94874814 22.76445918 -21.3671875 20.390625 C-20.64273438 19.71773437 -19.91828125 19.04484375 -19.171875 18.3515625 C-18.41390625 17.65804687 -17.6559375 16.96453125 -16.875 16.25 C-11.12785098 10.94649056 -5.48830936 5.57217147 0 0 Z " fill="#2169A3" transform="translate(127,64)"/>
<path d="M0 0 C10.51490533 3.77554949 18.48203182 12.04171698 26 20 C25.01 20.495 25.01 20.495 24 21 C23.01 20.67 22.02 20.34 21 20 C21 19.34 21 18.68 21 18 C20.401875 18.165 19.80375 18.33 19.1875 18.5 C17 19 17 19 14 19 C13.01 19.33 12.02 19.66 11 20 C11.495 23.96 11.495 23.96 12 28 C11.29746094 27.27167969 10.59492187 26.54335937 9.87109375 25.79296875 C7.117294 23.04304623 4.16595244 20.66505275 1.0625 18.3125 C0.06347656 17.54550781 -0.93554688 16.77851562 -1.96484375 15.98828125 C-6.77425568 12.8377141 -11.19368361 11.79070608 -16.875 11.375 C-17.84179688 11.30023438 -18.80859375 11.22546875 -19.8046875 11.1484375 C-20.52914062 11.09945312 -21.25359375 11.05046875 -22 11 C-22 10.67 -22 10.34 -22 10 C-19.41603321 9.91887546 -16.83462432 9.85945252 -14.25 9.8125 C-13.15558594 9.77479492 -13.15558594 9.77479492 -12.0390625 9.73632812 C-7.59028707 9.67566301 -5.31561346 10.05029884 -2 13 C0.65957742 13.82072897 3.21834126 14.11970253 6 14 C8.48009222 12.72927975 8.48009222 12.72927975 10 11 C7.525 10.505 7.525 10.505 5 10 C5.66 9.01 6.32 8.02 7 7 C6.01 6.319375 6.01 6.319375 5 5.625 C4.34 5.08875 3.68 4.5525 3 4 C3 3.34 3 2.68 3 2 C2.01 1.67 1.02 1.34 0 1 C0 0.67 0 0.34 0 0 Z " fill="#F8FBF8" transform="translate(102,93)"/>
<path d="M0 0 C1.765625 2.16015625 1.765625 2.16015625 3 4 C0.36 4.33 -2.28 4.66 -5 5 C-5.495 4.01 -5.495 4.01 -6 3 C-5.34 3 -4.68 3 -4 3 C-4.495 1.515 -4.495 1.515 -5 0 C-6.98 -0.33 -8.96 -0.66 -11 -1 C-11.33 -0.01 -11.66 0.98 -12 2 C-12.66 1.67 -13.32 1.34 -14 1 C-14 -0.65 -14 -2.3 -14 -4 C-26.3491755 -4.97815251 -38.61702895 -5.11739981 -51 -5 C-51 -4.34 -51 -3.68 -51 -3 C-51.73605469 -2.95101562 -52.47210938 -2.90203125 -53.23046875 -2.8515625 C-54.20628906 -2.77679688 -55.18210937 -2.70203125 -56.1875 -2.625 C-57.15042969 -2.55539063 -58.11335938 -2.48578125 -59.10546875 -2.4140625 C-62.05982835 -1.99144156 -64.34046435 -1.34849695 -67 0 C-68.36078035 2.52372901 -68.36078035 2.52372901 -69 5 C-69.99 5 -70.98 5 -72 5 C-73.12421831 10.58178797 -73.12421831 10.58178797 -72 16 C-71.484375 16.45375 -70.96875 16.9075 -70.4375 17.375 C-69 19 -69 19 -68.8125 22.1875 C-68.874375 23.115625 -68.93625 24.04375 -69 25 C-76.28717991 17.90458798 -76.28717991 17.90458798 -76.375 12.1875 C-76.2763967 7.34185221 -75.15912407 4.7733982 -72 1 C-71.53335938 0.16726562 -71.06671875 -0.66546875 -70.5859375 -1.5234375 C-66.50563782 -5.43115653 -61.83815225 -5.56803936 -56.375 -6.3125 C-54.69398193 -6.55722046 -54.69398193 -6.55722046 -52.97900391 -6.80688477 C-35.81531497 -9.15073281 -14.93330538 -10.5429136 0 0 Z " fill="#2A64A6" transform="translate(94,59)"/>
<path d="M0 0 C1.70751953 1.72412109 1.70751953 1.72412109 3.3828125 3.7734375 C3.99253906 4.5159375 4.60226563 5.2584375 5.23046875 6.0234375 C5.85566406 6.79945312 6.48085937 7.57546875 7.125 8.375 C7.75792969 9.14328125 8.39085937 9.9115625 9.04296875 10.703125 C13.73834849 16.46518337 16.70585035 20.57917824 16.58203125 28.2109375 C15.42718464 33.74490043 11.51921044 37.7327134 8 42 C6.98677587 43.38626389 5.98429776 44.78054989 5 46.1875 C4.34 47.115625 3.68 48.04375 3 49 C2.3828125 47.16015625 2.3828125 47.16015625 2 45 C3.875 42.4375 3.875 42.4375 6 40 C6.33 39.01 6.66 38.02 7 37 C7.66 36.67 8.32 36.34 9 36 C9.71247732 34.3523962 10.37400383 32.68236471 11 31 C11.36738281 30.37867188 11.73476562 29.75734375 12.11328125 29.1171875 C13.22400312 26.46515554 12.90933424 25.1897841 12.1875 22.4375 C11.99542969 21.67308594 11.80335938 20.90867187 11.60546875 20.12109375 C11.11442438 18.40085443 10.56571617 16.69714852 10 15 C8.68 15 7.36 15 6 15 C5.71125 14.030625 5.4225 13.06125 5.125 12.0625 C4.35785318 8.89335797 4.35785318 8.89335797 2 8 C1.505 6.515 1.505 6.515 1 5 C0.484375 4.484375 -0.03125 3.96875 -0.5625 3.4375 C-1.036875 2.963125 -1.51125 2.48875 -2 2 C-2 1.34 -2 0.68 -2 0 C-3.77444057 0.59348861 -5.54445553 1.20022001 -7.3125 1.8125 C-8.29863281 2.14894531 -9.28476563 2.48539063 -10.30078125 2.83203125 C-12.9076118 3.96002305 -14.15219864 4.91266884 -16 7 C-17.9375 8.0625 -17.9375 8.0625 -20 9 C-23.14525812 10.30628723 -23.14525812 10.30628723 -25 13 C-25.66 13 -26.32 13 -27 13 C-27 13.99 -27 14.98 -27 16 C-28.32 16 -29.64 16 -31 16 C-31.33 16.66 -31.66 17.32 -32 18 C-32.66 18 -33.32 18 -34 18 C-34.33 18.66 -34.66 19.32 -35 20 C-35.99 19.67 -36.98 19.34 -38 19 C-30.79145722 11.3409233 -10.51028739 -6.40982809 0 0 Z " fill="#21659B" transform="translate(166,45)"/>
<path d="M0 0 C11.79599797 0.06117385 23.59177401 0.1382532 35.38753128 0.23571491 C40.86462182 0.2804676 46.34163712 0.31971297 51.81884766 0.34643555 C57.10336362 0.37241957 62.38759085 0.41278729 67.67192841 0.46318626 C69.68933271 0.47988816 71.70678698 0.49138169 73.72425079 0.49761391 C76.54727037 0.50721883 79.36954565 0.53523482 82.19238281 0.56762695 C83.02891891 0.56619186 83.86545502 0.56475677 84.7273407 0.5632782 C89.06132318 0.63374118 91.87795826 0.82744479 95 4 C93.25019585 3.99000725 93.25019585 3.99000725 91.46504211 3.97981262 C80.47366891 3.91900799 69.48232982 3.87403041 58.49082661 3.84456348 C52.83992314 3.82890499 47.18915542 3.80766313 41.53833008 3.77368164 C36.08537142 3.7410951 30.63254337 3.72314837 25.17949486 3.71536827 C23.09866467 3.70982352 21.01784165 3.69899607 18.93706703 3.68280983 C16.02339839 3.66104517 13.11027 3.6580327 10.1965332 3.65942383 C9.33554016 3.648638 8.47454712 3.63785217 7.58746338 3.6267395 C2.8834052 3.65105563 -0.16883772 3.96794013 -4 7 C-5.9840719 9.23398969 -5.9840719 9.23398969 -7.6875 11.6875 C-8.74594208 13.15899265 -9.84045122 14.606789 -11 16 C-11.66 16 -12.32 16 -13 16 C-13 15.34 -13 14.68 -13 14 C-12.34 14 -11.68 14 -11 14 C-11 13.01 -11 12.02 -11 11 C-10.34 11 -9.68 11 -9 11 C-9 9.68 -9 8.36 -9 7 C-6.49515403 4.58152803 -5.53986194 4 -2 4 C-1.34 2.68 -0.68 1.36 0 0 Z " fill="#DFFCFE" transform="translate(53,20)"/>
<path d="M0 0 C0.66 0.66 1.32 1.32 2 2 C1.34 2 0.68 2 0 2 C-0.33 2.66 -0.66 3.32 -1 4 C-2.33038449 4.3449145 -3.66457061 4.67516582 -5 5 C-8.18362436 6.2999844 -8.18362436 6.2999844 -11 8 C-11.33 8.99 -11.66 9.98 -12 11 C-11.01 11 -10.02 11 -9 11 C-9.33 11.99 -9.66 12.98 -10 14 C-12.31 14 -14.62 14 -17 14 C-16.34 15.65 -15.68 17.3 -15 19 C-13.02 19 -11.04 19 -9 19 C-9 19.66 -9 20.32 -9 21 C-9.66 21 -10.32 21 -11 21 C-8.69281189 25.28477792 -6.67033927 28.72291137 -3 32 C-3.66 32 -4.32 32 -5 32 C-4.55527344 32.54269531 -4.11054687 33.08539063 -3.65234375 33.64453125 C-3.08644531 34.35996094 -2.52054688 35.07539063 -1.9375 35.8125 C-1.36902344 36.52019531 -0.80054687 37.22789062 -0.21484375 37.95703125 C0.18605469 38.63121094 0.58695313 39.30539063 1 40 C0.67 40.99 0.34 41.98 0 43 C-0.71542969 42.04222656 -1.43085937 41.08445313 -2.16796875 40.09765625 C-3.17435447 38.75251086 -4.18087582 37.40746694 -5.1875 36.0625 C-5.71762695 35.35335449 -6.24775391 34.64420898 -6.79394531 33.91357422 C-9.73100957 29.99376929 -12.69084317 26.09412027 -15.69140625 22.22265625 C-16.58339722 21.06914673 -16.58339722 21.06914673 -17.4934082 19.89233398 C-18.65327709 18.39522456 -19.81710701 16.90117452 -20.98510742 15.41040039 C-21.51080322 14.73098389 -22.03649902 14.05156738 -22.578125 13.3515625 C-23.04637695 12.75166504 -23.51462891 12.15176758 -23.99707031 11.53369141 C-25 10 -25 10 -25 8 C-24.42032471 7.82871582 -23.84064941 7.65743164 -23.2434082 7.48095703 C-20.59904012 6.69808664 -17.95576753 5.91157788 -15.3125 5.125 C-14.40048828 4.85558594 -13.48847656 4.58617188 -12.54882812 4.30859375 C-11.66259766 4.04433594 -10.77636719 3.78007813 -9.86328125 3.5078125 C-9.05157471 3.26691895 -8.23986816 3.02602539 -7.40356445 2.77783203 C-4.88344513 1.96228097 -2.448076 1.00971228 0 0 Z " fill="#166AAE" transform="translate(73,107)"/>
<path d="M0 0 C1.32 0 2.64 0 4 0 C4 0.99 4 1.98 4 3 C4.66 3 5.32 3 6 3 C6.5878125 4.60875 6.5878125 4.60875 7.1875 6.25 C8.75961249 9.95039685 10.78490348 11.56907336 14 14 C15.36176581 15.98075027 16.69593116 17.98079663 18 20 C19.8981412 22.60115645 21.07253007 23.80871937 24.25390625 24.46484375 C26.50568092 24.72208874 28.73608283 24.9032514 31 25 C31.29003906 24.40574219 31.58007812 23.81148437 31.87890625 23.19921875 C35.86590585 15.37803138 35.86590585 15.37803138 40 14 C41.20882096 11.99983534 41.20882096 11.99983534 42 10 C42.66 10 43.32 10 44 10 C44.33 9.01 44.66 8.02 45 7 C45 11.8788897 43.20208423 13.91875478 40.3125 17.5625 C39.87744141 18.13935547 39.44238281 18.71621094 38.99414062 19.31054688 C36.35341227 22.70241574 33.97470925 25.14770831 30 27 C25.18202358 27.53533071 21.57557289 27.66442622 17.5546875 24.578125 C13.84648789 20.81402289 10.99790929 16.32969427 8 12 C6.50413071 9.95530495 5.00429425 7.91350475 3.5 5.875 C0 1.12307692 0 1.12307692 0 0 Z " fill="#1662A0" transform="translate(74,150)"/>
<path d="M0 0 C3.39192363 0.59283621 5.2107757 1.76743189 7.75 4.0625 C8.67039062 4.88427734 8.67039062 4.88427734 9.609375 5.72265625 C10.29773438 6.35494141 10.29773438 6.35494141 11 7 C10.34 7.66 9.68 8.32 9 9 C10.32 9.66 11.64 10.32 13 11 C11.7075618 13.5848764 10.68265104 14.00224207 8 15 C5.7109375 14.828125 5.7109375 14.828125 3.375 14.25 C2.59898438 14.06953125 1.82296875 13.8890625 1.0234375 13.703125 C-1 13 -1 13 -3 11 C-3.125 8.375 -3.125 8.375 -3 6 C-3.66 5.67 -4.32 5.34 -5 5 C-4.360625 4.731875 -3.72125 4.46375 -3.0625 4.1875 C-0.66868314 3.11332248 -0.66868314 3.11332248 0 0 Z " fill="#F9FCFB" transform="translate(99,93)"/>
<path d="M0 0 C1.19496094 -0.00084595 1.19496094 -0.00084595 2.4140625 -0.00170898 C10.40649126 0.07120852 16.32698348 0.88671404 23.125 5.1875 C23.125 5.8475 23.125 6.5075 23.125 7.1875 C22.33996094 6.98253906 21.55492187 6.77757812 20.74609375 6.56640625 C19.69550781 6.29699219 18.64492187 6.02757812 17.5625 5.75 C16.52996094 5.48316406 15.49742188 5.21632813 14.43359375 4.94140625 C8.31955522 3.54824281 2.32447071 2.96790135 -3.9375 2.9375 C-4.69683838 2.93210205 -5.45617676 2.9267041 -6.23852539 2.92114258 C-13.82992967 2.98456347 -21.23391617 4.06863063 -28.70141602 5.38378906 C-29.59272217 5.52913086 -30.48402832 5.67447266 -31.40234375 5.82421875 C-32.19374756 5.96561279 -32.98515137 6.10700684 -33.80053711 6.25268555 C-35.875 6.1875 -35.875 6.1875 -37.65454102 4.71020508 C-38.05729248 4.2077124 -38.46004395 3.70521973 -38.875 3.1875 C-37.225 3.1875 -35.575 3.1875 -33.875 3.1875 C-33.875 2.5275 -33.875 1.8675 -33.875 1.1875 C-32.91013672 1.33058594 -32.91013672 1.33058594 -31.92578125 1.4765625 C-26.6769084 2.1205041 -22.08700887 2.20676158 -16.875 1.25 C-11.20124389 0.2431464 -5.74412901 -0.00941842 0 0 Z " fill="#E5FDFE" transform="translate(64.875,48.8125)"/>
<path d="M0 0 C1.26908203 -0.020625 2.53816406 -0.04125 3.84570312 -0.0625 C15.56799975 -0.11061615 25.56924267 2.02986946 36.0625 7.25 C36.0625 7.91 36.0625 8.57 36.0625 9.25 C34.45681334 8.96682074 32.85297953 8.67312209 31.25 8.375 C30.35667969 8.21257813 29.46335938 8.05015625 28.54296875 7.8828125 C26.0625 7.25 26.0625 7.25 23.0625 5.25 C20.62026101 4.83035513 20.62026101 4.83035513 18 4.6875 C13.25460978 4.34605489 13.25460978 4.34605489 11.0625 3.25 C9.28427192 3.16527041 7.50287617 3.14279085 5.72265625 3.15234375 C4.1284082 3.15717773 4.1284082 3.15717773 2.50195312 3.16210938 C1.38755859 3.17048828 0.27316406 3.17886719 -0.875 3.1875 C-1.98552734 3.19201172 -3.09605469 3.19652344 -4.24023438 3.20117188 C-6.30201269 3.20991352 -8.36378401 3.2206998 -10.42553711 3.23413086 C-12.26282902 3.24573782 -14.10017142 3.25 -15.9375 3.25 C-16.2675 2.59 -16.5975 1.93 -16.9375 1.25 C-11.51460606 -0.55763131 -5.67444973 0.02243974 0 0 Z " fill="#DFF7FC" transform="translate(60.9375,35.75)"/>
<path d="M0 0 C1.98 0.99 1.98 0.99 4 2 C4 2.66 4 3.32 4 4 C4.66 4 5.32 4 6 4 C6.66 5.65 7.32 7.3 8 9 C8.66 9 9.32 9 10 9 C10 9.66 10 10.32 10 11 C14.58661395 12.39578577 18.41980694 11.53914719 23.0625 10.75 C23.87783203 10.62753906 24.69316406 10.50507812 25.53320312 10.37890625 C26.31759766 10.24871094 27.10199219 10.11851563 27.91015625 9.984375 C28.62308838 9.86803711 29.33602051 9.75169922 30.07055664 9.63183594 C32.38583491 8.87365042 33.39249545 7.79677665 35 6 C38.70535079 3.52976614 42.66464009 3.43353599 47 3 C47 2.34 47 1.68 47 1 C50.465 0.505 50.465 0.505 54 0 C49.98307215 3.55494199 45.94462735 5.57604776 41.0625 7.625 C40.02706055 8.07359375 40.02706055 8.07359375 38.97070312 8.53125 C33.23714342 10.98771349 27.59817064 13.02081152 21.4375 14.125 C20.52871094 14.29257813 19.61992188 14.46015625 18.68359375 14.6328125 C17.79800781 14.75398438 16.91242187 14.87515625 16 15 C15.17113281 15.13792969 14.34226562 15.27585937 13.48828125 15.41796875 C9.65799396 14.77457669 8.00149413 12.10972367 5.75 9.1875 C5.30398437 8.64029297 4.85796875 8.09308594 4.3984375 7.52929688 C2.40826828 5.04158535 1.01472375 3.04417125 0 0 Z " fill="#236AA2" transform="translate(26,86)"/>
<path d="M0 0 C0.99 0.33 1.98 0.66 3 1 C2.3503125 1.80050781 2.3503125 1.80050781 1.6875 2.6171875 C-1.80533049 7.29046533 -4.18965274 11.23040148 -3.86328125 17.1796875 C-2.07030331 23.03728963 2.05722783 27.69250603 5.81494141 32.43603516 C7.39455633 34.52071031 8.71503337 36.72462719 10 39 C7.625 39.625 7.625 39.625 5 40 C3 38 3 38 2.625 35.125 C1.89196573 31.45982867 0.66243362 30.49066371 -2 28 C-2 27.01 -2 26.02 -2 25 C-2.66 25 -3.32 25 -4 25 C-6.74286258 19.00958812 -7.43652542 11.99110129 -5.171875 5.69921875 C-3.76531129 3.16425505 -2.63474713 1.31737356 0 0 Z " fill="#E2F1F5" transform="translate(22,56)"/>
<path d="M0 0 C1.32 0.33 2.64 0.66 4 1 C4 1.66 4 2.32 4 3 C4.66 3 5.32 3 6 3 C6.28875 4.093125 6.5775 5.18625 6.875 6.3125 C7.81893204 10.04013845 7.81893204 10.04013845 10 13 C9.67 13.99 9.34 14.98 9 16 C8.34 16 7.68 16 7 16 C7 16.66 7 17.32 7 18 C6.34 18 5.68 18 5 18 C4.9175 18.7425 4.835 19.485 4.75 20.25 C3.85190201 23.54302595 2.61583926 24.85976788 0 27 C-0.66 27 -1.32 27 -2 27 C-3.73693158 28.75521948 -3.73693158 28.75521948 -5.5 30.9375 C-8.79758308 34.89879154 -8.79758308 34.89879154 -11 36 C-9.36726722 32.34163083 -7.11352375 29.36375631 -4.6875 26.1875 C-3.8813863 25.11728098 -3.07539604 24.04696897 -2.26953125 22.9765625 C-0.95212053 21.2487364 0.3776057 19.52990211 1.73828125 17.8359375 C4.31537524 14.55963452 4.31537524 14.55963452 5.0625 10.5625 C3.56102279 6.94129025 1.84475285 3.45783906 0 0 Z " fill="#EEFCFD" transform="translate(123,134)"/>
<path d="M0 0 C8.38289838 4.25175781 15.57456598 10.57990004 20.5 18.5625 C19.51 19.0575 19.51 19.0575 18.5 19.5625 C16.79159719 17.92837557 15.56546953 16.69343906 14.5 14.5625 C13.51 14.10875 12.52 13.655 11.5 13.1875 C8.5 11.5625 8.5 11.5625 7.625 9.375 C7.58375 8.776875 7.5425 8.17875 7.5 7.5625 C6.51 7.5625 5.52 7.5625 4.5 7.5625 C4.5 6.9025 4.5 6.2425 4.5 5.5625 C-3.25450377 2.7666585 -10.19267306 1.39296272 -18.5 1.5625 C-18.5 0.9025 -18.5 0.2425 -18.5 -0.4375 C-12.53562812 -2.42562396 -5.866213 -2.32954307 0 0 Z " fill="#1F68A0" transform="translate(95.5,105.4375)"/>
<path d="M0 0 C3.91319794 3.46340508 6.26903131 7.44444823 8.8125 11.9375 C9.23208984 12.64068359 9.65167969 13.34386719 10.08398438 14.06835938 C13.00461092 19.20231081 13.00461092 19.20231081 12.984375 22.703125 C11.80561018 25.45357624 10.3355131 27.50037495 8.4375 29.8125 C7.79683594 30.60269531 7.15617187 31.39289063 6.49609375 32.20703125 C6.00238281 32.79871094 5.50867188 33.39039063 5 34 C4.67 32.68 4.34 31.36 4 30 C4.66 30 5.32 30 6 30 C6.5745952 26.26513121 7 22.78706732 7 19 C7.2981424 17.65835921 7.62243192 16.32148827 8 15 C7.34 15 6.68 15 6 15 C4.23828125 12.734375 4.23828125 12.734375 2.3125 9.75 C1.34763672 8.28820312 1.34763672 8.28820312 0.36328125 6.796875 C-1 4 -1 4 -0.70703125 1.640625 C-0.47371094 1.09921875 -0.24039063 0.5578125 0 0 Z " fill="#1E64A2" transform="translate(116,124)"/>
<path d="M0 0 C0.66 0.33 1.32 0.66 2 1 C0.68 4.3 -0.64 7.6 -2 11 C-2.66 11 -3.32 11 -4 11 C-4.33 11.99 -4.66 12.98 -5 14 C-5.99 14.495 -5.99 14.495 -7 15 C-7.66 15.66 -8.32 16.32 -9 17 C-9 17.99 -9 18.98 -9 20 C-10.47571387 21.21336474 -11.95506341 22.42304562 -13.46484375 23.59375 C-15.75299518 25.68976657 -16.81674203 28.17332817 -18 31 C-18.33 30.34 -18.66 29.68 -19 29 C-19.66 28.67 -20.32 28.34 -21 28 C-18.8145796 25.01930289 -16.62627139 22.04073706 -14.4375 19.0625 C-13.82841797 18.23169922 -13.21933594 17.40089844 -12.59179688 16.54492188 C-8.48340935 10.95838434 -4.28609729 5.45136197 0 0 Z " fill="#E0F5FA" transform="translate(166,97)"/>
<path d="M0 0 C0 3.57575896 -1.08840607 5.05295935 -3 8 C-1.68 8.33 -0.36 8.66 1 9 C0.67 10.32 0.34 11.64 0 13 C-0.99 12.67 -1.98 12.34 -3 12 C-3.33 11.34 -3.66 10.68 -4 10 C-5.01320313 10.95712891 -5.01320313 10.95712891 -6.046875 11.93359375 C-6.93890625 12.75988281 -7.8309375 13.58617188 -8.75 14.4375 C-10.07257813 15.67306641 -10.07257813 15.67306641 -11.421875 16.93359375 C-13.78875032 18.83068018 -15.0509191 19.62102932 -18 20 C-16.5735422 16.7413364 -14.83295838 14.5975146 -12.3046875 12.109375 C-11.23154297 11.04589844 -11.23154297 11.04589844 -10.13671875 9.9609375 C-9.39035156 9.23132813 -8.64398438 8.50171875 -7.875 7.75 C-7.12089844 7.00492187 -6.36679688 6.25984375 -5.58984375 5.4921875 C-3.73099228 3.6568658 -1.86762995 1.8263809 0 0 Z " fill="#1865AE" transform="translate(127,64)"/>
<path d="M0 0 C-0.5 1.8125 -0.5 1.8125 -2 4 C-4.04046611 4.93751145 -6.07699306 5.62945537 -8.22265625 6.2890625 C-10.20334248 6.85304843 -10.20334248 6.85304843 -11 9 C-11.66 9 -12.32 9 -13 9 C-13 9.99 -13 10.98 -13 12 C-14.32 12 -15.64 12 -17 12 C-17.33 12.66 -17.66 13.32 -18 14 C-18.66 14 -19.32 14 -20 14 C-20.33 14.66 -20.66 15.32 -21 16 C-21.99 15.67 -22.98 15.34 -24 15 C-7.52238806 -2.50746269 -7.52238806 -2.50746269 0 0 Z " fill="#196BA7" transform="translate(152,49)"/>
<path d="M0 0 C2.64 0 5.28 0 8 0 C8 0.66 8 1.32 8 2 C7.34 2 6.68 2 6 2 C8.30718811 6.28477792 10.32966073 9.72291137 14 13 C13.34 13 12.68 13 12 13 C12.44472656 13.54269531 12.88945313 14.08539063 13.34765625 14.64453125 C14.19650391 15.71767578 14.19650391 15.71767578 15.0625 16.8125 C15.63097656 17.52019531 16.19945313 18.22789062 16.78515625 18.95703125 C17.18605469 19.63121094 17.58695313 20.30539063 18 21 C17.67 21.99 17.34 22.98 17 24 C15.10278804 21.48020165 13.20748998 18.95896967 11.3125 16.4375 C10.78205078 15.73302734 10.25160156 15.02855469 9.70507812 14.30273438 C0 1.38247699 0 1.38247699 0 0 Z " fill="#1E65A3" transform="translate(56,126)"/>
<path d="M0 0 C4.17383395 3.92831431 7.89394426 8.16479983 11 13 C11 13.66 11 14.32 11 15 C10.34 15 9.68 15 9 15 C9 15.99 9 16.98 9 18 C8.34 18 7.68 18 7 18 C6.7525 17.21625 6.505 16.4325 6.25 15.625 C4.84610901 12.67682892 3.99324263 12.0975223 1 11 C1 8.66666667 1 6.33333333 1 4 C0.34 3.01 -0.32 2.02 -1 1 C-0.67 0.67 -0.34 0.34 0 0 Z " fill="#EBF8F7" transform="translate(58,130)"/>
<path d="M0 0 C2.58396679 -0.08112454 5.16537568 -0.14054748 7.75 -0.1875 C8.47960937 -0.21263672 9.20921875 -0.23777344 9.9609375 -0.26367188 C14.40572626 -0.32428263 16.6875066 0.04886951 20 3 C23.65274469 3.72481084 23.65274469 3.72481084 27 4 C27.66 5.98 28.32 7.96 29 10 C24.65337304 10 24.24275548 9.74191122 21.125 7.125 C14.53069924 1.98265537 8.14394317 1.55065808 0 1 C0 0.67 0 0.34 0 0 Z " fill="#D8F3F9" transform="translate(80,103)"/>
<path d="M0 0 C1.32 0 2.64 0 4 0 C4 0.99 4 1.98 4 3 C4.66 3 5.32 3 6 3 C6.5878125 4.60875 6.5878125 4.60875 7.1875 6.25 C8.75961249 9.95039685 10.78490348 11.56907336 14 14 C15.36011609 15.98188345 16.69791204 17.97951869 18 20 C18.66 20.33 19.32 20.66 20 21 C20 21.66 20 22.32 20 23 C16.01495739 21.69227456 14.02372097 20.29382238 11.484375 16.97265625 C10.87335938 16.18052734 10.26234375 15.38839844 9.6328125 14.57226562 C9.01148437 13.74404297 8.39015625 12.91582031 7.75 12.0625 C7.11320312 11.23814453 6.47640625 10.41378906 5.8203125 9.56445312 C1.14901274 3.44703823 1.14901274 3.44703823 0 0 Z " fill="#1A649C" transform="translate(74,150)"/>
<path d="M0 0 C1.65 0 3.3 0 5 0 C5 0.66 5 1.32 5 2 C5.66 2.33 6.32 2.66 7 3 C5.96359375 3.40992188 4.9271875 3.81984375 3.859375 4.2421875 C2.48954661 4.7863659 1.11975698 5.33064187 -0.25 5.875 C-1.27287109 6.27912109 -1.27287109 6.27912109 -2.31640625 6.69140625 C-5.61520973 8.0045222 -8.86212936 9.33401714 -12 11 C-12 10.01 -12 9.02 -12 8 C-11.34 8 -10.68 8 -10 8 C-9.67 6.68 -9.34 5.36 -9 4 C-6.03 3.34 -3.06 2.68 0 2 C0 1.34 0 0.68 0 0 Z " fill="#D6EFF7" transform="translate(157,40)"/>
<path d="M0 0 C2.86724686 0.57344937 3.8614515 0.8614515 6 3 C6 4.32 6 5.64 6 7 C6.66 7.33 7.32 7.66 8 8 C6.37660195 9.70884005 4.70680947 11.37446717 3 13 C2.34 13 1.68 13 1 13 C1 12.34 1 11.68 1 11 C0.278125 11.28875 -0.44375 11.5775 -1.1875 11.875 C-2.115625 12.24625 -3.04375 12.6175 -4 13 C-4.86625 13.391875 -5.7325 13.78375 -6.625 14.1875 C-9 15 -9 15 -12 14 C-6.72 11.36 -1.44 8.72 4 6 C2.31622777 2.10540926 2.31622777 2.10540926 0 0 Z " fill="#D0EEF8" transform="translate(148,24)"/>
<path d="M0 0 C0.33 0.99 0.66 1.98 1 3 C-3.84390238 7.23841458 -8.80789528 11.19695186 -14 15 C-13.67 15.66 -13.34 16.32 -13 17 C-19.625 18.25 -19.625 18.25 -23 16 C-22.32195312 15.6596875 -21.64390625 15.319375 -20.9453125 14.96875 C-13.18066257 10.92510959 -6.21001916 6.21001916 0 0 Z " fill="#CCF0F7" transform="translate(92,76)"/>
<path d="M0 0 C5.49410022 4.66166079 8.54628234 10.75942083 12 17 C11.01 17.99 10.02 18.98 9 20 C6.81024227 16.71536341 6.00193437 13.79303725 5 10 C4.34 10 3.68 10 3 10 C1.11608215 6.73454239 0.50712033 3.71888239 0 0 Z " fill="#DCF3F9" transform="translate(128,115)"/>
<path d="M0 0 C7.23767986 0.03350778 11.75663964 1.97094592 17 7 C17 7.33 17 7.66 17 8 C14.36 8.33 11.72 8.66 9 9 C8.67 8.34 8.34 7.68 8 7 C8.66 7 9.32 7 10 7 C9.67 6.01 9.34 5.02 9 4 C6.03 3.505 6.03 3.505 3 3 C2.67 3.99 2.34 4.98 2 6 C1.34 5.67 0.68 5.34 0 5 C0 3.35 0 1.7 0 0 Z " fill="#1668B3" transform="translate(80,55)"/>
<path d="M0 0 C11.28729302 -0.34909154 22.08536082 -0.2683947 33 3 C33.66 3.66 34.32 4.32 35 5 C33.96875 4.855625 32.9375 4.71125 31.875 4.5625 C25.60781804 3.7706178 19.30102341 3.41593834 13 3 C13 2.67 13 2.34 13 2 C8.71 1.67 4.42 1.34 0 1 C0 0.67 0 0.34 0 0 Z " fill="#2A6B9C" transform="translate(51,51)"/>
<path d="M0 0 C0 2 0 2 -1.4765625 3.51953125 C-4.98036843 5.57516971 -8.39663687 6.06203569 -12.375 6.6875 C-13.1175 6.81705078 -13.86 6.94660156 -14.625 7.08007812 C-18.7947297 7.77626091 -22.75727707 8.1414241 -27 8 C-24.1340346 6.42012841 -21.65960918 5.64520873 -18.4375 5.125 C-13.47272193 4.21024148 -8.94697485 2.63277146 -4.25 0.8046875 C-2 0 -2 0 0 0 Z " fill="#CBEAF8" transform="translate(69,93)"/>
<path d="M0 0 C1.134375 0.020625 2.26875 0.04125 3.4375 0.0625 C5.55796792 3.59661321 5.96949289 7.00643835 6.4375 11.0625 C5.7775 11.0625 5.1175 11.0625 4.4375 11.0625 C3.03515625 9.63671875 3.03515625 9.63671875 1.5 7.75 C-0.42713171 5.39899789 -2.37969293 3.18014865 -4.5625 1.0625 C-3.5625 0.0625 -3.5625 0.0625 0 0 Z " fill="#EFFBF8" transform="translate(95.5625,55.9375)"/>
<path d="M0 0 C1.00417969 0.00902344 2.00835937 0.01804688 3.04296875 0.02734375 C5.48724126 0.05062254 7.93098408 0.08331513 10.375 0.125 C10.375 0.455 10.375 0.785 10.375 1.125 C2.785 1.455 -4.805 1.785 -12.625 2.125 C-12.625 2.785 -12.625 3.445 -12.625 4.125 C-15.595 4.125 -18.565 4.125 -21.625 4.125 C-21.625 3.465 -21.625 2.805 -21.625 2.125 C-14.32972932 0.34874277 -7.49101622 -0.13001764 0 0 Z " fill="#1A649E" transform="translate(55.625,51.875)"/>
<path d="M0 0 C0.66 0.99 1.32 1.98 2 3 C-2.455 8.94 -2.455 8.94 -7 15 C-7.66 14.67 -8.32 14.34 -9 14 C-7.66511872 10.40608886 -6.03977277 7.24509304 -4 4 C-4.66 3.67 -5.32 3.34 -6 3 C-2.25 1.875 -2.25 1.875 0 3 C0 2.01 0 1.02 0 0 Z " fill="#1A65A7" transform="translate(166,92)"/>
<path d="M0 0 C0.33 1.32 0.66 2.64 1 4 C0.071875 4.12375 0.071875 4.12375 -0.875 4.25 C-1.57625 4.4975 -2.2775 4.745 -3 5 C-3.268125 5.6496875 -3.53625 6.299375 -3.8125 6.96875 C-5 9 -5 9 -7.3828125 9.828125 C-8.74019531 10.03695312 -8.74019531 10.03695312 -10.125 10.25 C-11.03507812 10.39953125 -11.94515625 10.5490625 -12.8828125 10.703125 C-13.93082031 10.85007813 -13.93082031 10.85007813 -15 11 C-15 9.68 -15 8.36 -15 7 C-14.31292969 6.86722656 -13.62585938 6.73445312 -12.91796875 6.59765625 C-11.56638672 6.33275391 -11.56638672 6.33275391 -10.1875 6.0625 C-8.84751953 5.80146484 -8.84751953 5.80146484 -7.48046875 5.53515625 C-4.88602829 5.02258847 -4.88602829 5.02258847 -2 4 C-0.79117904 1.99983534 -0.79117904 1.99983534 0 0 Z " fill="#DCF5FB" transform="translate(111,170)"/>
<path d="M0 0 C0.68964844 0.0721875 1.37929688 0.144375 2.08984375 0.21875 C8.09588659 0.81193942 13.9657 1.09892295 20 1 C20 1.33 20 1.66 20 2 C16.39973627 2.58971758 12.7947126 3.14204097 9.1875 3.6875 C8.16333984 3.85572266 7.13917969 4.02394531 6.08398438 4.19726562 C5.10107422 4.34228516 4.11816406 4.48730469 3.10546875 4.63671875 C2.19949951 4.77811279 1.29353027 4.91950684 0.36010742 5.06518555 C-2 5 -2 5 -3.8190918 3.52270508 C-4.2087915 3.0202124 -4.59849121 2.51771973 -5 2 C-3.35 2 -1.7 2 0 2 C0 1.34 0 0.68 0 0 Z " fill="#D4EEF5" transform="translate(31,50)"/>
<path d="M0 0 C0.33 0.66 0.66 1.32 1 2 C0.0625 4.125 0.0625 4.125 -1 6 C-1.66 6 -2.32 6 -3 6 C-3.061875 6.721875 -3.12375 7.44375 -3.1875 8.1875 C-4.83211763 13.88040717 -10.53960181 17.36944333 -15 21 C-13.3514785 17.30412114 -11.0660195 14.27799579 -8.625 11.0625 C-7.85414062 10.04285156 -7.08328125 9.02320313 -6.2890625 7.97265625 C-4.2228673 5.28942324 -2.12615662 2.6358517 0 0 Z " fill="#CEEAF4" transform="translate(127,149)"/>
<path d="M0 0 C1.32 0.66 2.64 1.32 4 2 C3.360625 2.2475 2.72125 2.495 2.0625 2.75 C-0.18741541 3.81562433 -0.18741541 3.81562433 -0.75 6.125 C-0.8325 6.74375 -0.915 7.3625 -1 8 C0.65 8.33 2.3 8.66 4 9 C4 9.33 4 9.66 4 10 C-1.94 10.495 -1.94 10.495 -8 11 C-5.50127818 7.1626772 -2.9156164 3.54039134 0 0 Z " fill="#2C638F" transform="translate(49,26)"/>
<path d="M0 0 C3.9252025 3.70090521 6.94580156 7.54959656 10 12 C8.68 12.99 7.36 13.98 6 15 C5.34 14.34 4.68 13.68 4 13 C4.375 9.875 4.375 9.875 5 7 C3.68 6.67 2.36 6.34 1 6 C0.67 4.02 0.34 2.04 0 0 Z " fill="#E3F2F3" transform="translate(69,145)"/>
<path d="M0 0 C3.89006773 1.38780795 6.96558708 3.2152227 10.3125 5.625 C11.19550781 6.25664063 12.07851562 6.88828125 12.98828125 7.5390625 C13.65214844 8.02117187 14.31601563 8.50328125 15 9 C11.265625 11.0390625 11.265625 11.0390625 8.875 10.6875 C7 10 7 10 5 9 C5.66 8.34 6.32 7.68 7 7 C6.01 6.319375 6.01 6.319375 5 5.625 C4.34 5.08875 3.68 4.5525 3 4 C3 3.34 3 2.68 3 2 C2.01 1.67 1.02 1.34 0 1 C0 0.67 0 0.34 0 0 Z " fill="#DFF3F3" transform="translate(102,93)"/>
<path d="M0 0 C0.99 0.33 1.98 0.66 3 1 C2.38511719 1.8353125 2.38511719 1.8353125 1.7578125 2.6875 C-1.83123532 7.77055337 -3.88612101 11.87366554 -5 18 C-5.33 18 -5.66 18 -6 18 C-6.50350402 11.04884731 -6.13500456 6.71603571 -2 1 C-1.34 0.67 -0.68 0.34 0 0 Z " fill="#D5F2FC" transform="translate(22,56)"/>
<path d="M0 0 C1.32 0 2.64 0 4 0 C7.30938588 3.30938588 8.75206942 6.52824875 10 11 C5.90725115 9.42586583 2.64043987 6.45897623 0 3 C0 2.01 0 1.02 0 0 Z " fill="#1565A2" transform="translate(120,103)"/>
<path d="M0 0 C0.33 0.66 0.66 1.32 1 2 C0.67 2.99 0.34 3.98 0 5 C1.32 5.33 2.64 5.66 4 6 C4 6.99 4 7.98 4 9 C-1.53846154 9.36923077 -1.53846154 9.36923077 -3.875 7.5 C-4.24625 7.005 -4.6175 6.51 -5 6 C-3.35 4.02 -1.7 2.04 0 0 Z " fill="#0965B4" transform="translate(108,84)"/>
<path d="M0 0 C-3.2903223 1.00446104 -6.58246822 2.00280756 -9.875 3 C-10.81214844 3.28617187 -11.74929687 3.57234375 -12.71484375 3.8671875 C-14.05869141 4.27324219 -14.05869141 4.27324219 -15.4296875 4.6875 C-16.25710449 4.93886719 -17.08452148 5.19023438 -17.93701172 5.44921875 C-20 6 -20 6 -22 6 C-22 5.34 -22 4.68 -22 4 C-20.68 4 -19.36 4 -18 4 C-18 3.34 -18 2.68 -18 2 C-5.89076257 -1.70690942 -5.89076257 -1.70690942 0 0 Z " fill="#D4F0F6" transform="translate(68,110)"/>
<path d="M0 0 C1.9480957 0.00483398 1.9480957 0.00483398 3.93554688 0.00976562 C5.30729233 0.01812094 6.67903712 0.02658588 8.05078125 0.03515625 C9.4342432 0.0401729 10.81770688 0.04473552 12.20117188 0.04882812 C15.5885852 0.06063096 18.97591158 0.07709606 22.36328125 0.09765625 C22.36328125 0.42765625 22.36328125 0.75765625 22.36328125 1.09765625 C21.63214111 1.11747559 20.90100098 1.13729492 20.14770508 1.15771484 C16.82337856 1.25318539 13.49966139 1.36277591 10.17578125 1.47265625 C8.45004883 1.5190625 8.45004883 1.5190625 6.68945312 1.56640625 C5.57763672 1.60507812 4.46582031 1.64375 3.3203125 1.68359375 C2.2991333 1.71501465 1.2779541 1.74643555 0.22583008 1.77880859 C-2.71543563 2.1064242 -4.95695878 2.87077819 -7.63671875 4.09765625 C-8.29671875 3.10765625 -8.95671875 2.11765625 -9.63671875 1.09765625 C-6.21920222 -0.04151593 -3.60183938 -0.01572856 0 0 Z " fill="#C6EBF7" transform="translate(53.63671875,35.90234375)"/>
<path d="M0 0 C2.52631142 3.12781414 4.42373366 6.29577411 6 10 C5.67 10.99 5.34 11.98 5 13 C1.81994972 9.11327187 -1.10554447 5.10047867 -4 1 C-2.68 0.67 -1.36 0.34 0 0 Z " fill="#DBF2FA" transform="translate(118,120)"/>
<path d="M0 0 C-3.31114834 1.12880057 -6.58978257 2.21302675 -10 3 C-9.690625 3.556875 -9.38125 4.11375 -9.0625 4.6875 C-7.94238179 7.12540433 -7.43962636 9.36224186 -7 12 C-9.5999298 9.48972295 -11.99091227 7.0136316 -14 4 C-14 3.34 -14 2.68 -14 2 C-12.42085985 1.46658816 -10.83645613 0.94874237 -9.25 0.4375 C-8.36828125 0.14746094 -7.4865625 -0.14257812 -6.578125 -0.44140625 C-3.92165684 -1.01697435 -2.52968894 -0.89248371 0 0 Z " fill="#326EA0" transform="translate(62,113)"/>
<path d="M0 0 C0.99 0.33 1.98 0.66 3 1 C-1.31243812 5.66634642 -5.32885094 9.1065566 -11 12 C-9.71480435 9.13302508 -8.42870746 7.02392288 -6 5 C-5.34 5 -4.68 5 -4 5 C-4 4.34 -4 3.68 -4 3 C-3.34 3 -2.68 3 -2 3 C-2 2.34 -2 1.68 -2 1 C-1.34 0.67 -0.68 0.34 0 0 Z " fill="#276C9F" transform="translate(91,74)"/>
<path d="M0 0 C0.66 0.66 1.32 1.32 2 2 C-1.3 4.97 -4.6 7.94 -8 11 C-8.66 9.68 -9.32 8.36 -10 7 C-8 5 -8 5 -5.375 4.875 C-4.59125 4.91625 -3.8075 4.9575 -3 5 C-3 4.01 -3 3.02 -3 2 C-2.01 1.34 -1.02 0.68 0 0 Z " fill="#CDECF5" transform="translate(114,74)"/>
<path d="M0 0 C0.804375 0.309375 1.60875 0.61875 2.4375 0.9375 C6.62249087 2.18565517 10.66306101 2.6337696 15 3 C15.33 2.01 15.66 1.02 16 0 C16.99 0.66 17.98 1.32 19 2 C15.41836082 4.68622939 12.50670382 5.52098324 8.00390625 5.3671875 C4.6265882 4.7483417 2.62911639 3.16902102 0 1 C0 0.67 0 0.34 0 0 Z " fill="#3873A3" transform="translate(90,172)"/>
<path d="M0 0 C1.98 0.99 1.98 0.99 4 2 C4 2.66 4 3.32 4 4 C4.66 4 5.32 4 6 4 C6.66 5.65 7.32 7.3 8 9 C8.66 9 9.32 9 10 9 C10 9.66 10 10.32 10 11 C10.66 11.33 11.32 11.66 12 12 C12.33 12.66 12.66 13.32 13 14 C9.67615087 13.75604777 8.89308184 12.87821243 6.640625 10.3125 C5.83296341 9.2161987 5.03636833 8.1116738 4.25 7 C3.83878906 6.44054687 3.42757813 5.88109375 3.00390625 5.3046875 C0 1.17306894 0 1.17306894 0 0 Z " fill="#2269A0" transform="translate(26,86)"/>
<path d="M0 0 C1.32 0.33 2.64 0.66 4 1 C4 1.99 4 2.98 4 4 C5.32 4.33 6.64 4.66 8 5 C7.01 5.99 6.02 6.98 5 8 C1.125 6.125 1.125 6.125 0 5 C-0.04063832 3.33382885 -0.042721 1.66611905 0 0 Z " fill="#E6F7F9" transform="translate(112,67)"/>
<path d="M0 0 C0.33 0.66 0.66 1.32 1 2 C-0.9160139 6.04491824 -3.33879986 8.46532298 -7 11 C-7.66 11 -8.32 11 -9 11 C-7.59155282 7.78475695 -5.89655214 5.67816132 -3.375 3.25 C-2.74335937 2.63640625 -2.11171875 2.0228125 -1.4609375 1.390625 C-0.73777344 0.70226562 -0.73777344 0.70226562 0 0 Z " fill="#1160A2" transform="translate(118,73)"/>
<path d="M0 0 C0.33 0 0.66 0 1 0 C1.09796875 0.66386719 1.1959375 1.32773438 1.296875 2.01171875 C2.20474663 7.37285726 3.02036413 11.02036413 7 15 C5.68 15.33 4.36 15.66 3 16 C3 15.01 3 14.02 3 13 C2.34 13 1.68 13 1 13 C-0.6290678 8.20862412 -1.20577428 4.94367454 0 0 Z " fill="#C8E3EE" transform="translate(17,68)"/>
<path d="M0 0 C1.32 0.33 2.64 0.66 4 1 C4 1.66 4 2.32 4 3 C4.66 3 5.32 3 6 3 C6.98248524 7.0527516 7.08159574 10.83861737 7 15 C6.34 15 5.68 15 5 15 C4.9175 14.01 4.835 13.02 4.75 12 C4.13691993 7.52543052 2.18031955 3.90429315 0 0 Z " fill="#CFEAF4" transform="translate(123,134)"/>
<path d="M0 0 C13.81776765 -0.55353075 13.81776765 -0.55353075 19 3 C19 3.66 19 4.32 19 5 C18.21496094 4.79503906 17.42992188 4.59007812 16.62109375 4.37890625 C11.08982255 2.96045756 5.67629598 1.64503363 0 1 C0 0.67 0 0.34 0 0 Z " fill="#C4EAF6" transform="translate(69,51)"/>
<path d="M0 0 C1.9453125 -0.29296875 1.9453125 -0.29296875 4.125 -0.1875 C5.40375 -0.125625 6.6825 -0.06375 8 0 C7.67 0.99 7.34 1.98 7 3 C4.69 3 2.38 3 0 3 C0.33 4.65 0.66 6.3 1 8 C0.34 8 -0.32 8 -1 8 C-1.625 5.6875 -1.625 5.6875 -2 3 C-1.34 2.01 -0.68 1.02 0 0 Z " fill="#0964AC" transform="translate(56,118)"/>
<path d="M0 0 C0 3.90838866 -1.50567876 5.11594107 -4 8 C-2.68 9.32 -1.36 10.64 0 12 C-0.99 12.495 -0.99 12.495 -2 13 C-4.03144641 12.06553465 -6.03533587 11.06775224 -8 10 C-6.34908222 5.70761377 -3.26245434 3.1206085 0 0 Z " fill="#2A6B9D" transform="translate(108,82)"/>
<path d="M0 0 C1.32 0 2.64 0 4 0 C3.64950425 3.24208567 3.43778819 4.61527704 0.9375 6.8125 C0.298125 7.204375 -0.34125 7.59625 -1 8 C-1.625 5.6875 -1.625 5.6875 -2 3 C-1.34 2.01 -0.68 1.02 0 0 Z " fill="#E7F2F2" transform="translate(101,82)"/>
<path d="M0 0 C1.32 0 2.64 0 4 0 C4 0.99 4 1.98 4 3 C4.66 3 5.32 3 6 3 C8.1519437 6.22791555 8.20086443 7.28400809 8 11 C4.32966073 7.72291137 2.30718811 4.28477792 0 0 Z " fill="#206CA9" transform="translate(74,150)"/>
<path d="M0 0 C0.66 0.66 1.32 1.32 2 2 C-0.64 5.63 -3.28 9.26 -6 13 C-6.33 11.68 -6.66 10.36 -7 9 C-5.125 6.4375 -5.125 6.4375 -3 4 C-2.67 3.01 -2.34 2.02 -2 1 C-1.34 0.67 -0.68 0.34 0 0 Z " fill="#2866A1" transform="translate(175,81)"/>
<path d="M0 0 C1.98 0 3.96 0 6 0 C5.67 0.99 5.34 1.98 5 3 C4.34 3 3.68 3 3 3 C3 4.32 3 5.64 3 7 C2.34 7 1.68 7 1 7 C1 7.66 1 8.32 1 9 C0.34 8.67 -0.32 8.34 -1 8 C-1.125 2.25 -1.125 2.25 0 0 Z " fill="#F0FAF6" transform="translate(41,24)"/>
<path d="M0 0 C0.66 0.33 1.32 0.66 2 1 C1.67 3.31 1.34 5.62 1 8 C-1.4375 7.1875 -1.4375 7.1875 -4 6 C-4.33 5.01 -4.66 4.02 -5 3 C-2.625 1.4375 -2.625 1.4375 0 0 Z " fill="#F7F9F5" transform="translate(158,24)"/>
<path d="M0 0 C4.13621084 3.3810038 7.81316569 6.66590534 11 11 C9.35 10.67 7.7 10.34 6 10 C6 9.34 6 8.68 6 8 C5.34 7.67 4.68 7.34 4 7 C3.67 6.01 3.34 5.02 3 4 C2.01 4 1.02 4 0 4 C0 2.68 0 1.36 0 0 Z " fill="#C5EAF4" transform="translate(117,103)"/>
<path d="M0 0 C1.32 0.33 2.64 0.66 4 1 C3.85904936 2.6254308 3.71207913 4.25034051 3.5625 5.875 C3.48128906 6.77992187 3.40007812 7.68484375 3.31640625 8.6171875 C3 11 3 11 2 13 C1.34 13 0.68 13 0 13 C0 8.71 0 4.42 0 0 Z " fill="#D0E9F5" transform="translate(181,65)"/>
<path d="M0 0 C3 0 3 0 5 1 C5 2.65 5 4.3 5 6 C5.66 6.33 6.32 6.66 7 7 C6.01 8.485 6.01 8.485 5 10 C3.02 7.03 1.04 4.06 -1 1 C-0.67 0.67 -0.34 0.34 0 0 Z " fill="#DFF4F9" transform="translate(171,49)"/>
<path d="M0 0 C2.86724686 0.57344937 3.8614515 0.8614515 6 3 C6 4.32 6 5.64 6 7 C6.66 7.33 7.32 7.66 8 8 C6.37660195 9.70884005 4.70680947 11.37446717 3 13 C2.34 13 1.68 13 1 13 C1 12.01 1 11.02 1 10 C1.66 9.67 2.32 9.34 3 9 C4.0248753 7.23966377 4.0248753 7.23966377 4 5 C2.14835964 2.24743206 2.14835964 2.24743206 0 0 Z " fill="#DDF1F5" transform="translate(148,24)"/>
<path d="M0 0 C0.99 0.33 1.98 0.66 3 1 C3.99 0.67 4.98 0.34 6 0 C4.70700306 2.88437779 3.34058637 4.87219421 1 7 C0.01 6.67 -0.98 6.34 -2 6 C-1.34 4.02 -0.68 2.04 0 0 Z " fill="#1D69AF" transform="translate(152,107)"/>
<path d="M0 0 C0.67578125 1.765625 0.67578125 1.765625 1 4 C-0.14453125 5.921875 -0.14453125 5.921875 -1.8125 7.75 C-2.62654297 8.67039062 -2.62654297 8.67039062 -3.45703125 9.609375 C-5 11 -5 11 -7 11 C-7 10.34 -7 9.68 -7 9 C-6.34 9 -5.68 9 -5 9 C-5 8.01 -5 7.02 -5 6 C-4.34 6 -3.68 6 -3 6 C-3 4.68 -3 3.36 -3 2 C-2.01 1.34 -1.02 0.68 0 0 Z " fill="#D4F3F8" transform="translate(47,25)"/>
<path d="M0 0 C3.78699616 3.36621881 6.8272631 7.41641804 9 12 C8.67 12.66 8.34 13.32 8 14 C5.18857757 10.74466876 2.81675166 7.91300358 1 4 C0.34 3.34 -0.32 2.68 -1 2 C-0.67 1.34 -0.34 0.68 0 0 Z " fill="#35719C" transform="translate(116,124)"/>
<path d="M0 0 C-0.33 0.66 -0.66 1.32 -1 2 C-2.051875 1.979375 -3.10375 1.95875 -4.1875 1.9375 C-7.32704904 1.98896802 -9.96883396 2.26517187 -13 3 C-13 2.34 -13 1.68 -13 1 C-4.57142857 -1.42857143 -4.57142857 -1.42857143 0 0 Z " fill="#FDF7ED" transform="translate(69,106)"/>
<path d="M0 0 C3.68646141 1.45855647 5.16143971 3.30229045 7.25 6.625 C8.03117187 7.85089844 8.03117187 7.85089844 8.828125 9.1015625 C9.21484375 9.72804687 9.6015625 10.35453125 10 11 C6.1953125 10.28125 6.1953125 10.28125 4.4375 7.75 C3.963125 6.8425 3.48875 5.935 3 5 C2.443125 4.071875 1.88625 3.14375 1.3125 2.1875 C0.879375 1.465625 0.44625 0.74375 0 0 Z " fill="#C8E6F3" transform="translate(80,161)"/>
<path d="M0 0 C3.465 1.485 3.465 1.485 7 3 C6.67 3.99 6.34 4.98 6 6 C6.66 6 7.32 6 8 6 C7.67 6.99 7.34 7.98 7 9 C4.36 6.69 1.72 4.38 -1 2 C-0.67 1.34 -0.34 0.68 0 0 Z " fill="#D3EFF8" transform="translate(92,56)"/>
<path d="M0 0 C1.98 0 3.96 0 6 0 C5.34 1.32 4.68 2.64 4 4 C2.02 4 0.04 4 -2 4 C-2 3.34 -2 2.68 -2 2 C-1.34 2 -0.68 2 0 2 C0 1.34 0 0.68 0 0 Z " fill="#0962C7" transform="translate(141,56)"/>
<path d="M0 0 C0 0.66 0 1.32 0 2 C-3.37097383 3.49821059 -5.20442119 4 -9 4 C-9 4.66 -9 5.32 -9 6 C-9.66 5.67 -10.32 5.34 -11 5 C-9.875 3.0625 -9.875 3.0625 -8 1 C-5.25382145 0.32746648 -2.82009501 0 0 0 Z " fill="#3674A5" transform="translate(34,54)"/>
<path d="M0 0 C1.65 0 3.3 0 5 0 C5 0.66 5 1.32 5 2 C5.66 2.33 6.32 2.66 7 3 C3.78548731 4.60725635 0.56387464 4.05748185 -3 4 C-2.67 3.34 -2.34 2.68 -2 2 C-1.34 2 -0.68 2 0 2 C0 1.34 0 0.68 0 0 Z " fill="#E2F2F2" transform="translate(157,40)"/>
<path d="M0 0 C4.016309 1.29095647 5.21984594 3.70573831 7.0703125 7.24609375 C8.09791729 9.25566677 8.09791729 9.25566677 10 12 C9.01 12 8.02 12 7 12 C5.17578125 9.62890625 5.17578125 9.62890625 3.3125 6.5625 C2.68988281 5.55316406 2.06726563 4.54382813 1.42578125 3.50390625 C0 1 0 1 0 0 Z " fill="#0D62A6" transform="translate(115,127)"/>
<path d="M0 0 C0.66 1.32 1.32 2.64 2 4 C-4.625 5.25 -4.625 5.25 -8 3 C-2.25 0 -2.25 0 0 0 Z " fill="#E1F3FA" transform="translate(77,89)"/>
<path d="M0 0 C0.99 0.33 1.98 0.66 3 1 C2.67 1.66 2.34 2.32 2 3 C1.34 3 0.68 3 0 3 C0 3.66 0 4.32 0 5 C-2.31 5.66 -4.62 6.32 -7 7 C-4.78071806 4.09197539 -3.07030857 2.04687238 0 0 Z " fill="#C3E4F3" transform="translate(100,69)"/>
<path d="M0 0 C0.66 0.33 1.32 0.66 2 1 C1.01 2.98 0.02 4.96 -1 7 C-1.99 7 -2.98 7 -4 7 C-4.33 7.66 -4.66 8.32 -5 9 C-5.99 8.67 -6.98 8.34 -8 8 C-5.33333333 5.33333333 -2.66666667 2.66666667 0 0 Z " fill="#2B73A4" transform="translate(136,56)"/>
<path d="M0 0 C0 3 0 3 -1.75 5 C-3.76583262 6.79185122 -5.80641156 8.43315111 -8 10 C-8.66 9.67 -9.32 9.34 -10 9 C-6.7 6.03 -3.4 3.06 0 0 Z " fill="#D0F0FB" transform="translate(125,46)"/>
<path d="M0 0 C1 3 1 3 0.3125 5 C-1.17477001 7.26631621 -2.75769234 8.50512823 -5 10 C-5.66 9.67 -6.32 9.34 -7 9 C-4.69 6.03 -2.38 3.06 0 0 Z " fill="#D1E8F5" transform="translate(174,86)"/>
<path d="M0 0 C4.875 4.625 4.875 4.625 6 8 C4.68 8 3.36 8 2 8 C0.74335022 5.09399739 0 3.20395416 0 0 Z " fill="#D8EFF7" transform="translate(49,118)"/>
<path d="M0 0 C-2.50248865 1.66832577 -4.41149187 2.62381674 -7.1875 3.625 C-8.26064453 4.01558594 -8.26064453 4.01558594 -9.35546875 4.4140625 C-9.89816406 4.60742188 -10.44085938 4.80078125 -11 5 C-10.1875 3.0625 -10.1875 3.0625 -9 1 C-5.8035914 -0.06546953 -3.34252724 -0.07427838 0 0 Z " fill="#D3F5FC" transform="translate(80,104)"/>
<path d="M0 0 C3.99500618 1.3697164 6.80009492 3.25722422 10 6 C9.01 6.33 8.02 6.66 7 7 C4.8125 5.6875 4.8125 5.6875 3 4 C3 3.34 3 2.68 3 2 C2.01 1.67 1.02 1.34 0 1 C0 0.67 0 0.34 0 0 Z " fill="#D1F0FB" transform="translate(102,93)"/>
<path d="M0 0 C-4.95 2.475 -4.95 2.475 -10 5 C-10.33 4.34 -10.66 3.68 -11 3 C-9.68 2.67 -8.36 2.34 -7 2 C-7 1.34 -7 0.68 -7 0 C-4 -1 -4 -1 0 0 Z " fill="#3274A8" transform="translate(80,87)"/>
<path d="M0 0 C4.875 2.75 4.875 2.75 6 5 C3.36 5.33 0.72 5.66 -2 6 C-2.33 5.34 -2.66 4.68 -3 4 C-2.01 3.34 -1.02 2.68 0 2 C0 1.34 0 0.68 0 0 Z " fill="#1A65A5" transform="translate(91,58)"/>
<path d="M0 0 C3.78717347 1.48781815 5.77407001 3.61988409 8 7 C7.67 7.99 7.34 8.98 7 10 C5.83043409 8.52312468 4.66441854 7.04343707 3.5 5.5625 C2.8503125 4.73878906 2.200625 3.91507813 1.53125 3.06640625 C0 1 0 1 0 0 Z " fill="#3170A7" transform="translate(66,140)"/>
<path d="M0 0 C0.33 0 0.66 0 1 0 C1.25328119 5.06562383 0.33583899 9.15758367 -1 14 C-1.33 14 -1.66 14 -2 14 C-2.05437607 12.41705218 -2.09296271 10.83355744 -2.125 9.25 C-2.14820313 8.36828125 -2.17140625 7.4865625 -2.1953125 6.578125 C-1.99139502 3.8864142 -1.36551721 2.30095026 0 0 Z " fill="#E2FAFB" transform="translate(18,60)"/>
<path d="M0 0 C2.125 0.9375 2.125 0.9375 4 2 C2.35 3.65 0.7 5.3 -1 7 C-1.33 6.01 -1.66 5.02 -2 4 C-1.34 4 -0.68 4 0 4 C0 3.34 0 2.68 0 2 C-0.66 1.67 -1.32 1.34 -2 1 C-1.34 0.67 -0.68 0.34 0 0 Z " fill="#D8F0F4" transform="translate(130,56)"/>
<path d="M0 0 C5.57142857 5.14285714 5.57142857 5.14285714 6 9 C4.0625 8.1875 4.0625 8.1875 2 7 C1.67 6.01 1.34 5.02 1 4 C0.34 3.67 -0.32 3.34 -1 3 C-0.67 2.01 -0.34 1.02 0 0 Z " fill="#2C6BA5" transform="translate(166,46)"/>
<path d="M0 0 C0 0.99 0 1.98 0 3 C-1.6396875 3.2165625 -1.6396875 3.2165625 -3.3125 3.4375 C-6.93122987 3.88288104 -6.93122987 3.88288104 -10 5 C-10 4.34 -10 3.68 -10 3 C-2.6 0 -2.6 0 0 0 Z " fill="#F1FAF8" transform="translate(149,35)"/>
<path d="M0 0 C2.96404505 2.80804268 5.44499019 5.18315774 7 9 C6.34 9 5.68 9 5 9 C5 8.34 5 7.68 5 7 C3.68 6.67 2.36 6.34 1 6 C0.67 4.02 0.34 2.04 0 0 Z " fill="#D0EEFA" transform="translate(69,145)"/>
<path d="M0 0 C0.66 0.33 1.32 0.66 2 1 C1.34 2.98 0.68 4.96 0 7 C-1.32 6.34 -2.64 5.68 -4 5 C-3.6875 3.0625 -3.6875 3.0625 -3 1 C-2.01 0.67 -1.02 0.34 0 0 Z " fill="#076EC8" transform="translate(123,145)"/>
<path d="M0 0 C2.64752004 2.57784846 4.94432065 4.91648098 7 8 C6.01 8.495 6.01 8.495 5 9 C1.9083091 6.47043472 1.09068668 3.77545388 0 0 Z " fill="#2869A0" transform="translate(109,116)"/>
<path d="M0 0 C1.32 0 2.64 0 4 0 C4 2.31 4 4.62 4 7 C3.01 7.495 3.01 7.495 2 8 C2 7.01 2 6.02 2 5 C1.34 4.67 0.68 4.34 0 4 C0 2.66666667 0 1.33333333 0 0 Z " fill="#096CC8" transform="translate(132,112)"/>
<path d="M0 0 C2.96404505 2.80804268 5.44499019 5.18315774 7 9 C4.0625 7.875 4.0625 7.875 1 6 C0.125 2.8125 0.125 2.8125 0 0 Z " fill="#CFEBF4" transform="translate(32,95)"/>
<path d="M0 0 C2 1.125 2 1.125 4 3 C4.25 6.1875 4.25 6.1875 4 9 C0.06153846 5.67692308 0.06153846 5.67692308 -0.25 2.25 C-0.1675 1.5075 -0.085 0.765 0 0 Z " fill="#13629E" transform="translate(21,75)"/>
<path d="M0 0 C-2.5654594 2.5654594 -4.47686668 2.54046087 -8 3 C-8 3.99 -8 4.98 -8 6 C-8.66 6 -9.32 6 -10 6 C-9.875 4.1875 -9.875 4.1875 -9 2 C-3.81203008 -1.27067669 -3.81203008 -1.27067669 0 0 Z " fill="#016ECB" transform="translate(138,33)"/>
<path d="M0 0 C1.32 0.66 2.64 1.32 4 2 C3.360625 2.268125 2.72125 2.53625 2.0625 2.8125 C-0.33131686 3.88667752 -0.33131686 3.88667752 -1 7 C-2.32 6.67 -3.64 6.34 -5 6 C-3.35 4.02 -1.7 2.04 0 0 Z " fill="#286EA0" transform="translate(49,26)"/>
<path d="M0 0 C0.66 0.33 1.32 0.66 2 1 C0.55746343 4.36591866 -1.33264727 6.51047079 -4 9 C-3.67 7.35 -3.34 5.7 -3 4 C-2.01 3.67 -1.02 3.34 0 3 C0 2.01 0 1.02 0 0 Z " fill="#2E6EA2" transform="translate(118,157)"/>
<path d="M0 0 C2.31 0.33 4.62 0.66 7 1 C5.68 2.32 4.36 3.64 3 5 C1.5 3.625 1.5 3.625 0 2 C0 1.34 0 0.68 0 0 Z " fill="#096DC7" transform="translate(51,116)"/>
<path d="M0 0 C1.8871875 0.0309375 1.8871875 0.0309375 3.8125 0.0625 C3.8125 0.7225 3.8125 1.3825 3.8125 2.0625 C2.35614629 2.28424933 0.89727044 2.48948698 -0.5625 2.6875 C-1.37460937 2.80351563 -2.18671875 2.91953125 -3.0234375 3.0390625 C-3.73757812 3.04679687 -4.45171875 3.05453125 -5.1875 3.0625 C-5.8475 2.4025 -6.5075 1.7425 -7.1875 1.0625 C-4.43671116 0.14557039 -2.82801087 -0.04636083 0 0 Z " fill="#F3FCF6" transform="translate(65.1875,106.9375)"/>
<path d="M0 0 C2.86724686 0.57344937 3.8614515 0.8614515 6 3 C5 4 5 4 2.4375 4.0625 C1.2309375 4.0315625 1.2309375 4.0315625 0 4 C-0.33 3.34 -0.66 2.68 -1 2 C-0.67 1.34 -0.34 0.68 0 0 Z " fill="#0663C8" transform="translate(119,99)"/>
<path d="M0 0 C1.32 0 2.64 0 4 0 C3.38722388 2.96175123 2.74627478 4.38058783 1 7 C0 6 0 6 -0.0625 2.9375 C-0.041875 1.968125 -0.02125 0.99875 0 0 Z " fill="#F9F8EF" transform="translate(16,56)"/>
<path d="M0 0 C0.66 0 1.32 0 2 0 C0.375 5.75 0.375 5.75 -3 8 C-2.67 6.02 -2.34 4.04 -2 2 C-1.34 2 -0.68 2 0 2 C0 1.34 0 0.68 0 0 Z " fill="#F5F8F1" transform="translate(126,153)"/>
<path d="M0 0 C2.96404505 2.80804268 5.44499019 5.18315774 7 9 C6.34 9 5.68 9 5 9 C3.4921875 7.25 3.4921875 7.25 1.875 5 C1.33617187 4.2575 0.79734375 3.515 0.2421875 2.75 C-0.37269531 1.88375 -0.37269531 1.88375 -1 1 C-0.67 0.67 -0.34 0.34 0 0 Z " fill="#C6E8F8" transform="translate(58,130)"/>
<path d="M0 0 C1.27351308 2.54702616 0.80191925 3.4282945 0.0625 6.125 C-0.13214844 6.84945312 -0.32679688 7.57390625 -0.52734375 8.3203125 C-0.68332031 8.87460938 -0.83929688 9.42890625 -1 10 C-3 7 -3 7 -2.75 5 C-2 3 -2 3 0 0 Z " fill="#D9F3FA" transform="translate(144,126)"/>
<path d="M0 0 C1.65 1.65 3.3 3.3 5 5 C4.67 5.99 4.34 6.98 4 8 C3.01 8 2.02 8 1 8 C0.67 5.36 0.34 2.72 0 0 Z " fill="#CFECF7" transform="translate(128,115)"/>
<path d="M0 0 C1.8125 0.1875 1.8125 0.1875 4 1 C5.75 3.5625 5.75 3.5625 7 6 C6.01 6.495 6.01 6.495 5 7 C0 1.125 0 1.125 0 0 Z " fill="#DAF3FC" transform="translate(21,84)"/>
<path d="M0 0 C0.66 0 1.32 0 2 0 C2 0.99 2 1.98 2 3 C2.99 2.67 3.98 2.34 5 2 C5 2.99 5 3.98 5 5 C3.35 5.33 1.7 5.66 0 6 C0 4.02 0 2.04 0 0 Z " fill="#0968B4" transform="translate(75,81)"/>
<path d="M0 0 C0.33 0.99 0.66 1.98 1 3 C-0.32 4.32 -1.64 5.64 -3 7 C-3.99 6.67 -4.98 6.34 -6 6 C-4.02 4.02 -2.04 2.04 0 0 Z " fill="#D7F4FB" transform="translate(92,76)"/>
<path d="M0 0 C2.475 0.495 2.475 0.495 5 1 C5.33 2.98 5.66 4.96 6 7 C1.125 2.25 1.125 2.25 0 0 Z " fill="#D6EDF8" transform="translate(108,114)"/>
<path d="M0 0 C0.66 0 1.32 0 2 0 C0.79618552 2.49361571 -0.45428722 4.68143083 -2 7 C-2.66 7 -3.32 7 -4 7 C-2.92598892 4.08482708 -2.22189824 2.22189824 0 0 Z " fill="#CDEFFC" transform="translate(162,102)"/>
<path d="M0 0 C0 0.66 0 1.32 0 2 C-2.30276574 4.21747812 -3.52480092 4.96760006 -6.75 5.1875 C-7.86375 5.0946875 -7.86375 5.0946875 -9 5 C-7.68 4.67 -6.36 4.34 -5 4 C-5 3.01 -5 2.02 -5 1 C-2 0 -2 0 0 0 Z " fill="#DEF5FA" transform="translate(69,93)"/>
<path d="M0 0 C0.66 0.33 1.32 0.66 2 1 C-1.465 3.97 -1.465 3.97 -5 7 C-3.92643531 2.70574125 -3.4915227 2.25259529 0 0 Z " fill="#D6F2FB" transform="translate(125,64)"/>
<path d="M0 0 C0.66 0.33 1.32 0.66 2 1 C1.34 2.65 0.68 4.3 0 6 C-1.32 6 -2.64 6 -4 6 C-3.67 4.68 -3.34 3.36 -3 2 C-2.01 2 -1.02 2 0 2 C0 1.34 0 0.68 0 0 Z " fill="#1465A9" transform="translate(25,58)"/>
<path d="M0 0 C0.99 0.66 1.98 1.32 3 2 C1.68 2 0.36 2 -1 2 C-1 2.99 -1 3.98 -1 5 C-2.32 4.67 -3.64 4.34 -5 4 C-5 3.34 -5 2.68 -5 2 C-2.6875 0.875 -2.6875 0.875 0 0 Z " fill="#0368B0" transform="translate(173,59)"/>
<path d="M0 0 C2.97 0.495 2.97 0.495 6 1 C4.68 2.32 3.36 3.64 2 5 C1.34 4.67 0.68 4.34 0 4 C0 2.68 0 1.36 0 0 Z " fill="#376EA2" transform="translate(111,52)"/>
<path d="M0 0 C-0.66 1.32 -1.32 2.64 -2 4 C-3.32 4 -4.64 4 -6 4 C-5.67 3.01 -5.34 2.02 -5 1 C-2 0 -2 0 0 0 Z " fill="#1A60A2" transform="translate(121,48)"/>
</svg>
